<?xml version="1.0" encoding="UTF-8" standalone="no"?>
<svg
   xmlns:dc="http://purl.org/dc/elements/1.1/"
   xmlns:cc="http://creativecommons.org/ns#"
   xmlns:rdf="http://www.w3.org/1999/02/22-rdf-syntax-ns#"
   xmlns:svg="http://www.w3.org/2000/svg"
   xmlns="http://www.w3.org/2000/svg"
   id="svg3719"
   version="1.1"
   viewBox="0 0 210 297"
   height="297mm"
   width="210mm">
  <defs
     id="defs3713" />
  <metadata
     id="metadata3716">
    <rdf:RDF>
      <cc:Work
         rdf:about="">
        <dc:format>image/svg+xml</dc:format>
        <dc:type
           rdf:resource="http://purl.org/dc/dcmitype/StillImage" />
        <dc:title></dc:title>
      </cc:Work>
    </rdf:RDF>
  </metadata>
  <g
     id="layer1">
    <path
       id="path51"
       d="m 517.28859,299.11974 3.79146,-0.87497 4.66643,-6.70804 -1.45825,-4.08309 -5.83303,-3.49987 -8.74962,-9.33284 -2.91647,-0.58333 -25.37378,-27.99863 -4.08316,-6.70799 4.37478,-4.95811 3.49983,-6.41636 1.74993,-10.49949 -0.58333,-2.91654 -2.04152,-0.58328 -1.74993,1.45824 2.3332,3.20818 -4.66643,9.91622 -5.54135,7.29127 -171.78335,-166.825213 -9.91621,-7.582959 -7.29134,-2.624902 2.04158,6.708048 5.24976,8.166235 168.57514,174.116591 -8.74951,7.29126 -7.87461,2.33327 -1.45827,-1.74994 -2.33323,-0.58333 -0.87498,2.91654 4.95814,1.4583 9.33288,-1.74993 11.08276,-7.58296 7.58299,4.66642 27.41533,25.66541 0.29159,2.91654 6.99969,5.54139 6.12471,8.16629 z"
       style="fill:none;stroke:#000000;stroke-width:0.26458332px;stroke-linecap:butt;stroke-linejoin:miter;stroke-opacity:1" />
  </g>
</svg>
